<svg height="160" viewBox="0 0 500 160" width="500" xmlns="http://www.w3.org/2000/svg"><g fill="none"><g fill="#5f5fd3"><path d="m.5081207.835139v17.587387 122.904764 8.3375l76.4011323-76.40113c-4.393524-.639-7.921352-2.80291-10.578232-6.50028-3.189553-4.49231-4.784577-10.79279-4.784577-18.90146 0-7.99634 1.606024-14.251557 4.818034-18.766325 3.234469-4.514767 7.704426-6.77238 13.409662-6.77238 5.772643 0 10.242565 2.234944 13.409661 6.704831 3.189549 4.447394 4.784579 10.725244 4.784579 18.833874 0 1.57902-.0638 3.08739-.18791 4.53042l51.5572-51.557201h-131.241633zm158.0801693 4.601707-17.58801 17.588022v118.302422h-118.302431l-17.5873867 17.58742h12.9856797 122.904138 17.58801v-17.58742zm-131.10463 17.863225h25.4377v8.288537h-19.03596l-2.392606 10.006712c1.145553-.35936 2.235191-.61754 3.26842-.77481 1.055687-.1798 2.122726-.26971 3.20087-.26971 4.649548 0 8.445282 1.45979 11.387731 4.37981 2.942483 2.92 4.413901 6.68269 4.413901 11.28729 0 5.30096-1.796895 9.50108-5.390757 12.6008-3.593862 3.09969-8.512867 4.64944-14.757192 4.64944-2.762787 0-5.312244-.3254-7.648229-.97689-2.313563-.65138-4.503873-1.66211-6.570331-3.03224l2.156429-7.98545c2.313563 1.54983 4.301332 2.60587 5.963481 3.16738 1.662185.53909 3.470715.8083 5.424885.8083 3.256926 0 5.817382-.79723 7.681686-2.39197 1.864304-1.61724 2.796738-3.80695 2.796738-6.56973 0-2.87508-.909765-5.08802-2.729189-6.63789-1.819388-1.54986-4.425112-2.32438-7.81682-2.32438-1.796931 0-3.459221.24714-4.986625.74131-1.527403.47168-2.930884 1.18998-4.211218 2.15583l-2.325021-1.4486zm52.29048 8.086489c-2.605548 0-4.593317 1.41508-5.963481 4.245275-1.370165 2.830155-2.055423 6.929335-2.055423 12.297675 0 5.30092.685258 9.3665 2.055423 12.19659 1.370164 2.8302 3.335933 4.24531 5.896531 4.24531 2.628041 0 4.615809-1.40348 5.963516-4.21118s2.021296-6.92955 2.021296-12.36522c0-5.36837-.673589-9.44552-2.021296-12.23076-1.347707-2.785209-3.313476-4.17769-5.896566-4.17769z" opacity=".994" stroke="#5f5fd3" stroke-width=".967725"/><path d="m77.051191 86.97395-16.029135 16.02913-2.388868 10.00114 2.357279 1.46838c1.298068-.97921 2.721468-1.70791 4.270095-2.18615 1.548592-.50101 3.233552-.75125 5.055408-.75125 3.438809 0 6.08067.78527 7.925301 2.35664 1.844667 1.57137 2.766983 3.81463 2.766983 6.72962 0 2.80118-.94495 5.02177-2.835166 6.66146-1.890182 1.61692-4.48614 2.42543-7.788299 2.42543-1.981316 0-3.814631-.27358-5.499873-.82004-1.685242-.56934-3.700897-1.63941-6.046542-3.21078l-2.186185 8.09577c2.095156 1.38913 4.315785 2.41393 6.661431 3.07437 2.368455.66047 4.953097.9905 7.754242.9905 6.331018 0 11.31796-1.57112 14.961743-4.71389 3.643748-3.14273 5.465746-7.40162 5.465746-12.77616 0-4.66855-1.491302-8.483-4.474612-11.44354-2.983344-2.96053-6.832314-4.44055-11.54645-4.44055-1.093093 0-2.174516.0913-3.244869.27323-1.047578.15935-2.152234.42095-3.313652.78535l2.425429-10.14558h19.300022v-8.40323z" opacity=".994"/><path d="m136.3137 111.87672c0 8.152893-1.628303 14.518073-4.88491 19.09554-3.256607 4.57746-7.777133 6.86619-13.56158 6.86619-5.830013 0-10.373323-2.265957-13.62993-6.79787-3.23384-4.554687-4.85076-10.94264-4.85076-19.16386 0-8.107353 1.628307-14.4497733 4.88492-19.02726 3.27938-4.57746 7.811303-6.86619 13.59577-6.86619 5.852767 0 10.38468 2.2659667 13.59574 6.7979 3.233833 4.50914 4.85075 10.874323 4.85075 19.09555zm-26.57662.0684c0 5.37454.69459 9.49654 2.08377 12.366 1.389173 2.869433 3.381853 4.30415 5.97804 4.30415 2.66448 0 4.679933-1.42333 6.04636-4.26999 1.36638-2.84668 2.04957-7.025617 2.04957-12.53681 0-5.44284-.68319-9.576227-2.04957-12.40016-1.366427-2.8239067-3.359107-4.23586-5.97804-4.23586-2.641733 0-4.657187 1.43473-6.04636 4.30419-1.38918 2.869453-2.08377 7.025613-2.08377 12.46848z" opacity=".994"/></g><g fill="#101828" transform="translate(170 23)"><g opacity=".994" transform="translate(4.716966 .688504)"><path d="m4.13740922 44.0605862c2.55025758 1.7083936 4.74149664 2.8721098 6.57371718 3.4911485 1.8322206.5942197 3.8253816.8913296 5.9794831.8913296 3.590166 0 6.4127791-.8789679 8.4678392-2.6369038 2.0550602-1.7827071 3.0825902-4.1967905 3.0825902-7.2422503 0-3.1692676-1.0027709-5.6080982-3.0083127-7.3164919-2.0055418-1.7084415-4.8776732-2.5626623-8.6163941-2.5626623-1.9807851 0-3.813008.2723627-5.4966689.8170881-1.68366558.5199542-3.23114987 1.3122711-4.64245281 2.3769506l-2.56264075-1.5970193 6.75941446-28.30039622h28.0404358v9.13630762h-20.9839043l-2.6369111 11.0305087c1.2627481-.3962423 2.463597-.6809905 3.6025468-.8542447 1.1637066-.1978816 2.339794-.2968224 3.5282622-.2968224 5.1252719 0 9.309672 1.609381 12.5532003 4.8281429 3.2435283 3.2188099 4.8652924 7.366082 4.8652924 12.4418165 0 5.8433042-1.9807803 10.4733738-5.9423408 13.890209s-9.3839495 5.1252528-16.2671669 5.1252528c-3.0454502 0-5.8556825-.3590138-8.43069687-1.0770412-2.55025279-.7180275-4.96432903-1.8322014-7.24222873-3.3425218z"/><path d="m88.3701222 29.0561793c0 8.8639928-1.7703238 15.7843382-5.3109715 20.761036-3.5406478 4.9766979-8.4554609 7.4650468-14.7444394 7.4650468-6.3384969 0-11.2780691-2.4635778-14.8187168-7.3907334-3.5158862-4.9519746-5.2738293-11.8970911-5.2738293-20.8353494 0-8.8144985 1.7703239-15.7100967 5.3109716-20.68679456 3.5654045-4.97669783 8.492596-7.46504674 14.7815745-7.46504674 6.3632584 0 11.2904523 2.46357778 14.7815817 7.39073335 3.5158861 4.90243235 5.2738292 11.82280165 5.2738292 20.76110795zm-28.8946446.0740259c0 5.8433042.7551721 10.3248189 2.2655165 13.4445442 1.5103443 3.1197254 3.6768243 4.679588 6.4994397 4.679588 2.8968906 0 5.0881296-1.5474771 6.5737172-4.6424313 1.4855828-3.0949542 2.2283742-7.6383728 2.2283742-13.6302558 0-5.9175697-.7427914-10.41147-2.2283742-13.481701-1.4855876-3.070183-3.6520675-4.6052745-6.4994397-4.6052745-2.8721338 0-5.0633729 1.5598626-6.5737172 4.6795879-1.5103444 3.1197254-2.2655165 7.6383728-2.2655165 13.5559425z"/></g><path d="m101.875336 34.0900197v-9.3592478h20.7982v9.3592478z" opacity=".994"/><g opacity=".994" transform="translate(127.009756 .688504)"><path d="m4.13740922 44.0605862c2.55025758 1.7083936 4.74149664 2.8721098 6.57371718 3.4911485 1.8322206.5942197 3.8253816.8913296 5.9794831.8913296 3.590166 0 6.4127791-.8789679 8.4678392-2.6369038 2.0550602-1.7827071 3.0825902-4.1967905 3.0825902-7.2422503 0-3.1692676-1.0027709-5.6080982-3.0083127-7.3164919-2.0055418-1.7084415-4.8776732-2.5626623-8.6163941-2.5626623-1.9807851 0-3.813008.2723627-5.4966689.8170881-1.68366558.5199542-3.23114987 1.3122711-4.64245281 2.3769506l-2.56264075-1.5970193 6.75941446-28.30039622h28.0404358v9.13630762h-20.9839043l-2.6369111 11.0305087c1.2627481-.3962423 2.463597-.6809905 3.6025468-.8542447 1.1637066-.1978816 2.339794-.2968224 3.5282622-.2968224 5.1252719 0 9.309672 1.609381 12.5532003 4.8281429 3.2435283 3.2188099 4.8652924 7.366082 4.8652924 12.4418165 0 5.8433042-1.9807803 10.4733738-5.9423408 13.890209s-9.3839495 5.1252528-16.2671669 5.1252528c-3.0454502 0-5.8556825-.3590138-8.43069687-1.0770412-2.55025279-.7180275-4.96432903-1.8322014-7.24222873-3.3425218z"/><path d="m88.3701222 29.0561793c0 8.8639928-1.7703238 15.7843382-5.3109715 20.761036-3.5406478 4.9766979-8.4554609 7.4650468-14.7444394 7.4650468-6.3384969 0-11.2780691-2.4635778-14.8187168-7.3907334-3.5158862-4.9519746-5.2738293-11.8970911-5.2738293-20.8353494 0-8.8144985 1.7703239-15.7100967 5.3109716-20.68679456 3.5654045-4.97669783 8.492596-7.46504674 14.7815745-7.46504674 6.3632584 0 11.2904523 2.46357778 14.7815817 7.39073335 3.5158861 4.90243235 5.2738292 11.82280165 5.2738292 20.76110795zm-28.8946446.0740259c0 5.8433042.7551721 10.3248189 2.2655165 13.4445442 1.5103443 3.1197254 3.6768243 4.679588 6.4994397 4.679588 2.8968906 0 5.0881296-1.5474771 6.5737172-4.6424313 1.4855828-3.0949542 2.2283742-7.6383728 2.2283742-13.6302558 0-5.9175697-.7427914-10.41147-2.2283742-13.481701-1.4855876-3.070183-3.6520675-4.6052745-6.4994397-4.6052745-2.8721338 0-5.0633729 1.5598626-6.5737172 4.6795879-1.5103444 3.1197254-2.2655165 7.6383728-2.2655165 13.5559425z"/></g><g transform="translate(.52914 62.81001)"><path d="m5.94825347 48.0993914 7.13481713-46.84043822h10.4942607l9.022504 27.57945762c.1919737.57588.3945966 1.4184016.6078687 2.5275649.2346116 1.1091221.4479105 2.3782497.6398967 3.807383.1706341-1.4504316.3626079-2.7408988.5759212-3.8714017.2133133-1.1518012.4159569-1.9943229.6079306-2.5275649l9.1824766-27.51543892h10.3342881l7.1668079 46.84043822-9.5024218-.0001857-3.4234313-28.2513451c-.2559513-2.0903304-.4265854-3.6687376-.5119025-4.7352217-.0853171-1.0664842-.1279756-2.058321-.1279756-2.9755105 0-.4905629 0-.8531708 0-1.0878238.0214634-.2559099.0427823-.4798724.0639568-.6718874-.3199287 1.8343791-.6292103 3.4234561-.9278449 4.767231-.2772908 1.3224354-.5332482 2.324942-.7678723 3.0075199l-9.9183518 29.9470376h-5.6310634l-9.7583854-29.9470376c-.0853171-.2773733-.2772909-1.0452477-.5759213-2.303623-.2772908-1.2584579-.6718916-3.0928163-1.1838023-5.5030754v1.3757224c0 2.1756474-.1919737 4.8418784-.5759212 7.9986928l-.0321952.1281614-3.3914343 28.2513451z"/><path d="m92.4618948 30.278152-5.2471303-15.1335038c-.1492946-.4479249-.3412684-1.2157993-.5759213-2.303623-.2346116-1.0878237-.4799054-2.4209289-.7358814-3.99931544-.2772909 1.51440914-.5439119 2.87950304-.7998631 4.09528164-.2559513 1.1944804-.447925 1.9943641-.5759213 2.3996512l-5.0551607 14.9415094zm-29.8190495 17.8210537 17.8210412-46.84025252h11.4540965l18.07703 46.84025252h-11.3901399l-3.807383-9.9503984h-18.1409742l-3.2634587 9.9503984z"/><path d="m114.922167 48.0992057v-46.84025252h10.014355v38.32965722h15.997324v8.5105953z"/><path d="m171.488814 30.278152-5.247186-15.1335038c-.149419-.4479249-.341351-1.2157993-.575798-2.303623-.234446-1.0878237-.479748-2.4209289-.735906-3.99931544-.277373 1.51440914-.543994 2.87950304-.799863 4.09528164-.25591 1.1944804-.447842 1.9943641-.575797 2.3996512l-5.05513 14.9415094zm-29.819062 17.8210537 17.820992-46.84025252h11.454158l18.076943 46.84025252h-11.390078l-3.807383-9.9503984h-18.140961l-3.263471 9.9503984z"/><path d="m199.996048 48.0992057v-21.3724854l-15.869348-25.46776712h11.742057l6.942817 12.82988072c.341351.6398987.693289 1.4504316 1.055814 2.4315987.362402.981167.735679 2.1116493 1.119833 3.3914467.298837-1.0878237.629456-2.1116699.991858-3.0715386.383865-.9598275.81045-1.898336 1.279756-2.8155255l6.87886-12.76586202h11.6781l-15.805391 25.46776712v21.3724854z"/><path d="m227.063542 42.1481847 5.567094-6.3029385c.703876 1.7276811 1.834358 3.092775 3.391447 4.0952817 1.557088.981167 3.306129 1.4717505 5.247124 1.4717505 2.346281 0 4.201979-.554561 5.567094-1.663683 1.365073-1.1091633 2.04761-2.6022534 2.04761-4.4792705 0-2.2183265-2.271614-4.4259627-6.814841-6.6229084-1.471771-.7038763-2.634242-1.2797769-3.487413-1.7277018-4.095344-2.1330096-6.932209-4.2126701-8.510595-6.2389817-1.578387-2.0476511-2.36758-4.4792498-2.36758-7.2947959 0-3.86069072 1.525079-7.02815433 4.575236-9.50239089 3.071456-2.49561742 7.049453-3.74342613 11.93399-3.74342613 2.836886 0 5.279154.50125332 7.326805 1.50375995 2.068991.98116704 3.89268 2.52758553 5.471066 4.63925545l-5.919011 5.66306042c-.703877-1.3651146-1.642385-2.37829098-2.815526-3.03952929-1.151801-.68253663-2.548904-1.02380495-4.19131-1.02380495-1.983673 0-3.5834.50125332-4.799178 1.50375995-1.21582.98116709-1.82373 2.26094389-1.82373 3.83933049 0 2.4742778 2.410279 4.7352423 7.230839 6.7828935.959827.4053283 1.695692.7252777 2.207595.959848 3.967347 1.8130396 6.900199 3.8606907 8.798556 6.1429535 1.919696 2.2823041 2.879544 4.8845369 2.879544 7.8066985 0 4.393974-1.50376 7.9027265-4.51128 10.5262577-2.98618 2.6022328-7.006835 3.9033492-12.061965 3.9033492-3.583441 0-6.654939-.6185592-9.214492-1.8556774-2.559595-1.2371183-4.468621-3.0181484-5.727079-5.3430904z"/><path d="m266.960916 48.0992057v-46.84025252h10.014355v46.84025252z"/><path d="m311.913481 30.278152-5.247124-15.1335038c-.149418-.4479249-.341351-1.2157993-.575797-2.303623-.234447-1.0878237-.479728-2.4209289-.735845-3.99931544-.277373 1.51440914-.544015 2.87950304-.799925 4.09528164-.255909 1.1944804-.447842 1.9943641-.575797 2.3996512l-5.055192 14.9415094zm-29.819062 17.8210537 17.821054-46.84025252h11.454097l18.077004 46.84025252h-11.390139l-3.807321-9.9503984h-18.141024l-3.263471 9.9503984z"/></g></g></g></svg>